<?xml version="1.0" encoding="UTF-8"?>
<svg id="Layer_1" data-name="Layer 1" xmlns="http://www.w3.org/2000/svg" viewBox="0 0 500 154.31">
  <path d="M393.34,24.43l-3.5-.83c-.68-.16-1.21-.69-1.37-1.37l-.83-3.5c-.04-.18-.21-.31-.4-.31h0c-.19,0-.35.13-.4.31l-.83,3.5c-.16.68-.69,1.21-1.37,1.37l-3.5.83c-.18.04-.31.21-.31.4h0c0,.19.13.35.31.4l3.5.83c.68.16,1.21.69,1.37,1.37l.83,3.5c.04.18.21.31.4.31h0c.19,0,.35-.13.4-.31l.83-3.5c.16-.68.69-1.21,1.37-1.37l3.5-.83c.18-.04.31-.21.31-.4h0c0-.19-.13-.35-.31-.4Z" fill="#00ef99"/>
  <path d="M451.24,115.65l-2.43-.58c-.47-.11-.84-.48-.95-.95l-.58-2.43c-.03-.13-.14-.22-.28-.22h0c-.13,0-.25.09-.28.22l-.58,2.43c-.11.47-.48.84-.95.95l-2.43.58c-.13.03-.22.14-.22.28h0c0,.13.09.25.22.28l2.43.58c.47.11.84.48.95.95l.58,2.43c.03.13.14.22.28.22h0c.13,0,.25-.09.28-.22l.58-2.43c.11-.47.48-.84.95-.95l2.43-.58c.13-.03.22-.14.22-.28h0c0-.13-.09-.25-.22-.28Z" fill="#a5a5a5"/>
  <path d="M470.25,100l-5.06-1.21c-.98-.23-1.75-1-1.98-1.98l-1.21-5.06c-.06-.27-.3-.45-.57-.45h0c-.27,0-.51.19-.57.45l-1.21,5.06c-.23.98-1,1.75-1.98,1.98l-5.06,1.21c-.27.06-.45.3-.45.57h0c0,.27.19.51.45.57l5.06,1.21c.98.23,1.75,1,1.98,1.98l1.21,5.06c.06.27.3.45.57.45h0c.27,0,.51-.19.57-.45l1.21-5.06c.23-.98,1-1.75,1.98-1.98l5.06-1.21c.27-.06.45-.3.45-.57h0c0-.27-.19-.51-.45-.57Z" fill="#00ef99"/>
  <path d="M403.57,47.27l-4.58-1.09c-.89-.21-1.58-.91-1.8-1.8l-1.09-4.58c-.06-.24-.27-.41-.52-.41h0c-.25,0-.46.17-.52.41l-1.09,4.58c-.21.89-.91,1.58-1.8,1.8l-4.58,1.09c-.24.06-.41.27-.41.52h0c0,.25.17.46.41.52l4.58,1.09c.89.21,1.58.91,1.8,1.8l1.09,4.58c.06.24.27.41.52.41h0c.25,0,.46-.17.52-.41l1.09-4.58c.21-.89.91-1.58,1.8-1.8l4.58-1.09c.24-.06.41-.27.41-.52h0c0-.25-.17-.46-.41-.52Z" fill="#a5a5a5"/>
  <g>
    <path d="M440.92,61.48c-1.34,0-2.68-.51-3.7-1.53-2.04-2.04-2.04-5.36,0-7.4l26.01-26.01c2.04-2.04,5.36-2.04,7.4,0,2.04,2.04,2.04,5.36,0,7.4l-26.01,26.01c-1.02,1.02-2.36,1.53-3.7,1.53Z" fill="#00ef99"/>
    <path d="M488.76,82.52h-36.78c-2.89,0-5.23-2.34-5.23-5.23s2.34-5.23,5.23-5.23h36.78c2.89,0,5.23,2.34,5.23,5.23s-2.34,5.23-5.23,5.23Z" fill="#00ef99"/>
    <path d="M419.87,50.42c-2.89,0-5.23-2.34-5.23-5.23V8.4c0-2.89,2.34-5.23,5.23-5.23s5.23,2.34,5.23,5.23v36.78c0,2.89-2.34,5.23-5.23,5.23Z" fill="#00ef99"/>
  </g>
  <path d="M37.97,45v62.88c0,20.48-17.13,23-25.51,23-2.87,0-4.67-.36-4.67-.36v-12.82s1.08.24,2.63.24c4.31,0,12.34-1.32,12.34-11.26v-61.69h15.21Z" fill="#fff"/>
  <path d="M76.4,65.44c16.97,0,30.56,12.07,30.56,29.03s-13.59,29.03-30.45,29.03-30.56-11.96-30.56-29.03,13.59-29.03,30.45-29.03ZM76.51,111.77c8.92,0,16.42-6.96,16.42-17.29s-7.5-17.29-16.42-17.29-16.53,7.07-16.53,17.29,7.5,17.29,16.53,17.29Z" fill="#fff"/>
  <path d="M114.09,45h13.81v23.82c0,2.72-.22,4.68-.22,4.68h.22s4.89-8.05,16.64-8.05c15.01,0,24.58,11.85,24.58,29.03s-10.77,29.03-25.45,29.03c-11.53,0-16.53-8.27-16.53-8.27h-.22s.22,1.63.22,3.81v3.15h-13.05V45ZM141.28,111.88c7.61,0,13.92-6.2,13.92-17.18s-5.66-17.4-13.81-17.4c-7.18,0-13.92,5.22-13.92,17.51,0,8.59,4.57,17.07,13.81,17.07Z" fill="#fff"/>
  <path d="M185,110.25s6.09,6.63,16.31,6.63c5.87,0,10.98-2.94,10.98-8.7,0-11.96-29.47-9.03-29.47-26.86,0-9.79,8.81-15.12,18.7-15.12,11.53,0,16.85,5.98,16.85,5.98l-3.37,5.65s-4.68-5-13.7-5c-5.55,0-10.87,2.39-10.87,8.48,0,12.07,29.47,8.81,29.47,26.86,0,8.92-7.72,15.33-18.7,15.33-13.27,0-20.23-7.94-20.23-7.94l4.02-5.33Z" fill="#fff"/>
  <path d="M228.5,67.51h7.29v8.16c0,2.39-.22,4.35-.22,4.35h.22c1.96-5,8.92-13.81,21.86-13.81s18.27,7.72,18.27,21.2v34.8h-7.39v-32.84c0-8.59-1.3-16.2-11.85-16.2-9.35,0-17.4,6.41-19.9,15.44-.65,2.28-.87,4.79-.87,7.39v26.21h-7.39v-54.7Z" fill="#fff"/>
  <path d="M316.91,88.39h3.04v-1.41c0-10.55-5.76-14.14-13.59-14.14-9.03,0-15.44,5.22-15.44,5.22l-3.48-5.65s7.18-6.2,19.47-6.2c13.16,0,20.44,7.29,20.44,20.99v35.02h-7.07v-5.98c0-2.72.22-4.57.22-4.57h-.22s-4.57,11.85-18.27,11.85c-9.14,0-18.6-5.33-18.6-16.2,0-18.49,24.03-18.92,33.49-18.92ZM303.21,117.21c10.44,0,16.75-10.87,16.75-20.34v-2.39h-3.15c-8.59,0-25.77.33-25.77,12.4,0,5.11,4.02,10.33,12.18,10.33Z" fill="#fff"/>
  <path d="M339.32,67.51h7.07v5.33c0,2.39-.22,4.24-.22,4.24h.22s4.46-10.87,18.92-10.87,23.82,11.74,23.82,28.71-10.33,28.6-24.47,28.6c-13.16,0-17.94-10.44-17.94-10.44h-.22s.22,1.96.22,4.78v26.1h-7.39v-76.45ZM363.89,116.99c9.68,0,17.62-8.16,17.62-22.07s-7.07-21.97-17.29-21.97c-9.14,0-17.73,6.52-17.73,22.07,0,10.98,6.09,21.97,17.4,21.97Z" fill="#fff"/>
  <path d="M397.83,110.25s6.09,6.63,16.31,6.63c5.87,0,10.98-2.94,10.98-8.7,0-11.96-29.47-9.03-29.47-26.86,0-9.79,8.81-15.12,18.7-15.12,11.53,0,16.85,5.98,16.85,5.98l-3.37,5.65s-4.68-5-13.7-5c-5.55,0-10.87,2.39-10.87,8.48,0,12.07,29.47,8.81,29.47,26.86,0,8.92-7.72,15.33-18.7,15.33-13.27,0-20.23-7.94-20.23-7.94l4.02-5.33Z" fill="#fff"/>
  <g>
    <rect x="376.7" y="41.72" width=".79" height="4.32" fill="#00ef99"/>
    <rect x="376.7" y="36.61" width=".79" height="4.32" fill="#00ef99"/>
    <rect x="372.38" y="40.93" width="4.32" height=".79" fill="#00ef99"/>
    <rect x="377.49" y="40.93" width="4.32" height=".79" fill="#00ef99"/>
  </g>
  <g>
    <rect x="466.69" y="122.83" width=".84" height="4.6" fill="#00ef99"/>
    <rect x="466.69" y="117.4" width=".84" height="4.6" fill="#00ef99"/>
    <rect x="462.09" y="121.99" width="4.6" height=".84" fill="#00ef99"/>
    <rect x="467.53" y="121.99" width="4.6" height=".84" fill="#00ef99"/>
  </g>
</svg>