<?xml version="1.0" encoding="UTF-8"?>
<svg id="Layer_1" data-name="Layer 1" xmlns="http://www.w3.org/2000/svg" viewBox="0 0 400 400">
  <circle cx="200" cy="200" r="200"/>
  <path d="M210.63,191.53l16.02,24.32c1.99,3.04,5.39,4.87,9.02,4.87h13.89c-6.57,22.52-25.47,35.31-50.67,35.31-35.8,0-58.12-29.36-58.12-65.84s23.77-63.78,57.83-63.78c16.38,0,30.14,6.77,40.11,18.83,1.11,1.34,2.71,2.16,4.45,2.16h51.72c4.15,0,7.03-4.35,5.2-8.11-17.42-36.25-58.06-62.15-100.07-62.15-61.52,0-113.34,46.58-113.34,113.01,0,34.13,14.12,64.37,36.65,85.29l.69.82,69.83,64.27c4.18,3.86,10.62,3.76,14.71-.16l66.36-63.78c.39-.39.85-.72,1.27-1.11,23.37-22.33,36.12-54.53,36.12-87.12h0c0-3.17-2.55-5.72-5.72-5.72h-91.11c-4.54,0-7.29,5.07-4.77,8.86l-.07.03Z" fill="#fff"/>
</svg>